<svg id="图层_1" data-name="图层 1" xmlns="http://www.w3.org/2000/svg" viewBox="0 0 289.41 223.8"><defs><style>.cls-1{fill:#ff7814;}</style></defs><title>汇火文化-最终版</title><path class="cls-1" d="M166.48,47.6l17.2-26.47a190.82,190.82,0,0,0-94.62,4.45,154.7,154.7,0,0,0-45.93,22.8Q23,63.13,12.07,82.22a81.54,81.54,0,0,0,0,83q11,19.09,31.06,33.84A153.3,153.3,0,0,0,89.06,221.9a188.3,188.3,0,0,0,56.37,8.39q2.82,0,5.61-.09,9.66-.25,19.1-1.44,7.31-.93,14.47-2.41,9.22-2.78,5.79-11.64a2.22,2.22,0,0,0-.09-.28l-4.45-10.61q-3.36-6.87-11.17-5.43a136.46,136.46,0,0,1-23.65,3c-1.86.09-3.73.14-5.61.14q-43.71,0-74.72-22.76A81.35,81.35,0,0,1,48.09,154a59.44,59.44,0,0,1,0-60.59A81.35,81.35,0,0,1,70.71,68.73Q101.72,46,145.43,46A156.85,156.85,0,0,1,166.48,47.6Z" transform="translate(-0.71 -6.49)"/><path class="cls-1" d="M277,79.4q-12.65-20.27-36-35.56L223.18,71.38q13.53,11,20.49,24.06A58.78,58.78,0,0,1,251,123.76q0,20.44-13.73,38.24a90.14,90.14,0,0,1-28,23.55l-.55.28c-2.75,1.45-4.37,3.28-4.87,5.47q-.64,2.88,1.21,7.6l4,9.65q4,8.56,15.53,4.4,26.93-12.93,44.13-33.52,21.33-25.53,21.33-55.67Q290.12,100.43,277,79.4Z" transform="translate(-0.71 -6.49)"/><g id="_20_0_Layer1_0_FILL" data-name="   20 0 Layer1 0 FILL"><path class="cls-1" d="M207.46,51.78a11.25,11.25,0,0,0,.42,10.31L221,86.76a8,8,0,0,0,14.65.4l17.71-37.3a7.45,7.45,0,0,0-1.16-8.67,7.41,7.41,0,0,0-8.42-2.43l-27.63,6.53A11,11,0,0,0,207.46,51.78Z" transform="translate(-0.71 -6.49)"/></g><g id="_19_0_Layer0_0_FILL" data-name="   19 0 Layer0 0 FILL"><path class="cls-1" d="M200.85,45.43a11.29,11.29,0,0,0-.91-10.29l-14.25-24a7.51,7.51,0,0,0-7.43-4.64A7.43,7.43,0,0,0,171,11.43L155.13,49.54a7.46,7.46,0,0,0,1.57,8.61,7.42,7.42,0,0,0,8.53,2l27.29-7.84A10.94,10.94,0,0,0,200.85,45.43Z" transform="translate(-0.71 -6.49)"/></g><g id="_18_72_Layer0_0_FILL" data-name="   18 72 Layer0 0 FILL"><path class="cls-1" d="M214.29,120.91a19.14,19.14,0,0,0-19.1-19,18.54,18.54,0,0,0-13.53,5.57,19.13,19.13,0,0,0,0,27A18.58,18.58,0,0,0,195.19,140a19.14,19.14,0,0,0,19.1-19.1Z" transform="translate(-0.71 -6.49)"/></g><g id="_18_0_Layer0_0_FILL" data-name="   18    0 Layer0 0 FILL"><path class="cls-1" d="M113.19,121.05a19.14,19.14,0,0,0-19.1-19,18.55,18.55,0,0,0-13.54,5.57,19.16,19.16,0,0,0,0,27,18.59,18.59,0,0,0,13.54,5.57,19.14,19.14,0,0,0,19.1-19.1Z" transform="translate(-0.71 -6.49)"/></g></svg>